<svg id="Layer_1" data-name="Layer 1" xmlns="http://www.w3.org/2000/svg" xmlns:xlink="http://www.w3.org/1999/xlink" viewBox="0 0 118.09 98.54"><defs><style>.cls-1{fill:url(#linear-gradient);}.cls-2{fill:#fff;}</style><linearGradient id="linear-gradient" x1="47.13" y1="-11.07" x2="70.01" y2="104.78" gradientUnits="userSpaceOnUse"><stop offset="0" stop-color="#f10094"/><stop offset="0.14" stop-color="#d90082"/><stop offset="0.72" stop-color="#7b003d"/><stop offset="0.98" stop-color="#560022"/></linearGradient></defs><title>icon-1</title><ellipse class="cls-1" cx="59.05" cy="49.27" rx="59.05" ry="49.27"/><path class="cls-2" d="M1045.47,786.91H988a5.52,5.52,0,0,1-5.52-5.51V740.72a5.52,5.52,0,0,1,5.52-5.51h57.5a5.51,5.51,0,0,1,5.51,5.51V781.4A5.51,5.51,0,0,1,1045.47,786.91ZM988,738a2.77,2.77,0,0,0-2.76,2.76V781.4a2.77,2.77,0,0,0,2.76,2.76h57.5a2.76,2.76,0,0,0,2.75-2.76V740.72a2.76,2.76,0,0,0-2.75-2.76Z" transform="translate(-962.3 -718.89)"/><path class="cls-2" d="M1055,794.25H997.45a5.52,5.52,0,0,1-5.51-5.52V748.05a5.51,5.51,0,0,1,5.51-5.51H1055a5.51,5.51,0,0,1,5.51,5.51v40.68A5.52,5.52,0,0,1,1055,794.25Zm-57.51-49a2.76,2.76,0,0,0-2.75,2.76v40.68a2.76,2.76,0,0,0,2.75,2.76H1055a2.76,2.76,0,0,0,2.75-2.76V748.05a2.76,2.76,0,0,0-2.75-2.76Z" transform="translate(-962.3 -718.89)"/><path class="cls-2" d="M1034.65,812h-17.29a5.52,5.52,0,0,1,0-11h17.29a5.52,5.52,0,0,1,0,11Zm-17.29-8.27a2.76,2.76,0,0,0,0,5.51h17.29a2.76,2.76,0,1,0,0-5.51Z" transform="translate(-962.3 -718.89)"/><path class="cls-2" d="M1033.05,803.71h-14.19V791.49h14.19ZM1021.62,801h8.67v-6.7h-8.67Z" transform="translate(-962.3 -718.89)"/><path class="cls-2" d="M1033.1,781.49h-23.51v-10a10,10,0,0,1,10-10h3.45a10,10,0,0,1,10,10Zm-20.76-2.76h18v-7.22a7.29,7.29,0,0,0-7.28-7.27h-3.45a7.29,7.29,0,0,0-7.28,7.27Z" transform="translate(-962.3 -718.89)"/><path class="cls-2" d="M1021.35,760.59a6.52,6.52,0,1,1,6.51-6.51A6.52,6.52,0,0,1,1021.35,760.59Zm0-10.28a3.77,3.77,0,1,0,3.76,3.77A3.77,3.77,0,0,0,1021.35,750.31Z" transform="translate(-962.3 -718.89)"/></svg>